<?xml version="1.0" encoding="utf-8"?>
<!-- Generator: Adobe Illustrator 17.0.0, SVG Export Plug-In . SVG Version: 6.00 Build 0)  -->
<!DOCTYPE svg PUBLIC "-//W3C//DTD SVG 1.1//EN" "http://www.w3.org/Graphics/SVG/1.1/DTD/svg11.dtd">
<svg version="1.1" id="Layer_1" xmlns="http://www.w3.org/2000/svg" xmlns:xlink="http://www.w3.org/1999/xlink" x="0px" y="0px"
	 width="922.857px" height="1002.857px" viewBox="-309.5 21.643 922.857 1002.857"
	 enable-background="new -309.5 21.643 922.857 1002.857" xml:space="preserve">
<pattern  x="272.5" y="1185.5" width="540.723" height="258.35" patternUnits="userSpaceOnUse" id="Unnamed_Pattern" viewBox="0.217 -258.35 540.723 258.35" overflow="visible">
	<g>
		<polygon fill="none" points="0.217,0 540.94,0 540.94,-258.35 0.217,-258.35 		"/>
		<path fill="#504F4F" d="M344.93-145.01c-15.31,7.79-26.22,23.87-26.65,41.18c-0.74,14.71,5.91,29.34,17.11,38.83
			c12.42,10.89,30.75,14,46.31,8.79c7.01-2.82,13.74-6.68,18.97-12.23c5.91-5.95,9.8-13.57,12.33-21.49
			c1.78-7.85,1.86-16.2-0.08-24.02c-3.85-13.82-13.79-25.46-26.57-31.85C373.29-151.44,357.67-151.56,344.93-145.01 M386.81-107.47
			c0.84,5.67,0.88,11.93-2.24,16.98c-4.03,7.06-12.15,11.61-20.3,11.16c-6.86-0.1-13.41-3.74-17.41-9.24
			c-4.08-5.43-5.12-12.75-3.46-19.25c2.05-7.63,8.51-13.77,16.12-15.73C371.05-126.88,384.13-119.14,386.81-107.47z"/>
		<path fill="#858585" d="M386.35-145.8c12.78,6.39,22.72,18.03,26.57,31.85c17.46-11.85,34.52-24.28,51.45-36.88
			c13.1,2.45,25.95,6.07,38.9,9.24c11.53,3.22,23.29,5.65,34.7,9.29c1.94-15.55,2.61-31.24,2.97-46.9
			c-29.55-4.84-57.43-18.28-87.66-19.08c-23.86,14.84-45.74,32.51-68.43,49.03C383.21-148,384.9-146.27,386.35-145.8z"/>
		<path fill="#858585" d="M343.4-107.82c-1.66,6.5-0.62,13.82,3.46,19.25c4,5.5,10.55,9.14,17.41,9.24
			c8.15,0.45,16.27-4.1,20.3-11.16c3.12-5.05,3.08-11.31,2.24-16.98c-2.68-11.67-15.76-19.41-27.29-16.08
			C351.91-121.59,345.45-115.45,343.4-107.82z"/>
		<path fill="#858585" d="M381.7-56.21C401.68-38.63,419.44-18.79,438.23,0c11.75-0.65,23.39-2.77,35.14-3.25
			c5.11-1.78,10.57-1.03,15.88-1.42c13.09-0.64,26.18-1.56,39.23-2.86c1.05-15.39,2.76-30.73,3.59-46.13
			c-24.39,0.68-48.45,5.92-72.87,5.91c-3.31,0.21-5.28-2.77-7.53-4.63C437.88-63.96,426.86-78.42,413-89.93
			c-2.53,7.92-6.42,15.54-12.33,21.49C395.44-62.89,388.71-59.03,381.7-56.21z"/>
		<path fill="#829D94" d="M0.4-256.64c-0.31,17.31-0.11,34.63-0.12,51.95c8.8-5.48,17.56-11.05,26.39-16.49
			c-2.22-6.31-6.49-11.54-9.98-17.16c-4.48-6.65-8.57-13.56-13.33-20.01l-1.03,0.6C1.85-257.47,0.88-256.92,0.4-256.64z"/>
		<path fill="#829D94" d="M0.31-167.26c4.73,6.03,8.75,12.66,14.22,18.09c7.09,7.24,16.32,12.11,26.21,14.23
			c3.3-7.84,6.41-15.76,9.91-23.52c3.21-7.22,6.66-14.49,12.07-20.36c-6.16-2.94-12.34-6.4-16.78-11.7c-2.69-3-3.21-7.17-5.3-10.52
			c-2.2-3.49-5.06-6.6-6.61-10.47c-11.22,6.63-22.28,13.55-33.54,20.15C0-183.34,0.32-175.29,0.31-167.26z"/>
		<path fill="#829D94" d="M50.11-129.55c15.32,5.56,30.74,11,46.8,14.03c7.54,1.31,15.08,3.45,22.8,3.02
			c2.26-16.32,4.84-32.6,7.74-48.82c-19.47-3.55-38.99-7.52-57.59-14.43C68.21-158.59,56.74-144.9,50.11-129.55z"/>
		<path fill="#829D94" d="M128.07-106.74c0.88-1.19,1.64-3.18,3.47-2.44c12.19,2.46,24.44,4.65,36.73,6.54
			c10.39,1.94,20.95,2.66,31.35,4.51c0.35-17.83,2.01-35.61,2.95-53.41c-4.44-0.93-9.09-0.25-13.41-1.67
			c-4.84-1.29-9.9-0.92-14.81-1.59c-11.94-1.59-23.92-2.85-35.8-4.79C136.35-141.76,132.84-124.07,128.07-106.74z"/>
		<path fill="#829D94" d="M209.53-97.26c17.22,1.2,34.49,1.16,51.74,1.36c6.23-0.16,12.56,0.62,18.69-0.84
			c-0.32-16.54-0.51-33.11-0.15-49.66c3.88,0.28,7.77,0.55,11.67,0.77c0.6,16-0.53,32.01-0.61,48.02c7.65,4.24,15,9.17,21.83,14.64
			c-5.68,4.89-11.64,9.43-17.52,14.07c-1.84,1.38-2.98,3.4-4.26,5.26c3.82,0,7.64,0.22,11.47,0.23c11.01-0.34,22.03-0.5,33-1.59
			c-11.2-9.49-17.85-24.12-17.11-38.83c0.43-17.31,11.34-33.39,26.65-41.18c-7.86-0.69-15.77-0.4-23.64-0.77
			c-24.38-0.47-48.74-1.73-73.08-3.09c-3.68-0.38-7.36,0.53-11.02-0.13c-7.4-1.17-14.82,0.36-22.22-0.71
			C213.41-132.2,211.39-114.74,209.53-97.26z"/>
		<path fill="#829D94" d="M207.91-71.89c0.02,1.72,0.09,3.45,0.17,5.2c23.88,1.58,47.78,2.7,71.71,3.08
			c0.21-4.57,0.17-9.15,0.07-13.72c-1.97,2.27-2.93,6.6-6.62,6.29C251.46-70.49,229.69-72.35,207.91-71.89z"/>
		<path fill="#98B2A7" d="M94.11-89.68c6.76,1.83,13.1,5.03,19.99,6.39c2.65-9.56,4.58-19.35,5.61-29.21
			c-7.72,0.43-15.26-1.71-22.8-3.02c-16.06-3.03-31.48-8.47-46.8-14.03c-4.01,8.34-8.03,16.69-11.36,25.33
			C57.52-100.75,75.84-95.16,94.11-89.68z"/>
		<path fill="#436151" d="M0.28-204.69c-0.13,4.44-0.01,8.88,0.21,13.33c11.26-6.6,22.32-13.52,33.54-20.15
			c-1.98-3.52-4.36-6.78-6.43-10.23c-0.23,0.14-0.7,0.42-0.93,0.56C17.84-215.74,9.08-210.17,0.28-204.69z"/>
		<path fill="#436151" d="M50.65-158.46c-3.5,7.76-6.61,15.68-9.91,23.52c-4.23,10.38-9.86,20.13-14.09,30.5
			c3.13,1.97,6.28,3.92,9.5,5.77c0.89-1.84,1.79-3.68,2.6-5.55c3.33-8.64,7.35-16.99,11.36-25.33c6.63-15.35,18.1-29.04,19.75-46.2
			c-2.4-1.01-4.77-2.04-7.14-3.07C57.31-172.95,53.86-165.68,50.65-158.46z"/>
		<path fill="#9AB2A8" d="M0.35-124.29c8.38,7.11,17.09,13.84,26.3,19.85c4.23-10.37,9.86-20.12,14.09-30.5
			c-9.89-2.12-19.12-6.99-26.21-14.23c-5.47-5.43-9.49-12.06-14.22-18.09C0.17-152.93,0.21-138.61,0.35-124.29z"/>
		<path fill="#3A584E" d="M119.71-112.5c-1.03,9.86-2.96,19.65-5.61,29.21c-1.19,2.63-2.62,5.15-3.95,7.73
			c4.61,1.1,9.39,0.99,14.06,1.76c-0.25-2.72-0.53-5.43-0.66-8.14c0.61-8.39,2.67-16.62,4.52-24.8
			c4.77-17.33,8.28-35.02,10.48-52.85c-3.71-0.54-7.4-1.21-11.1-1.73C124.55-145.1,121.97-128.82,119.71-112.5z"/>
		<path fill="#385A4C" d="M202.57-151.54c-0.94,17.8-2.6,35.58-2.95,53.41c-0.47,7.71-1.2,15.41-2.22,23.07
			c-0.35,2.39-0.72,4.78-1.06,7.19c-1.3,0.07-2.59,0.15-3.87,0.25c4.01,1.13,8.46,0.17,12.64,0.79c0.74,0.04,2.23,0.1,2.97,0.14
			c-0.08-1.75-0.15-3.48-0.17-5.2c0.3-8.46,0.55-16.96,1.62-25.37c1.86-17.48,3.88-34.94,5.44-52.45l0.07-0.71
			c-4.1-0.88-8.26-1.34-12.41-1.86L202.57-151.54z"/>
		<path fill="#3A5C4E" d="M279.86-77.33c0.1,4.57,0.14,9.15-0.07,13.72c3.62,0.15,7.25,0.15,10.88-0.02
			c-0.09-11.33-0.11-22.66,0.2-33.98c0.08-16.01,1.21-32.02,0.61-48.02c-3.9-0.22-7.79-0.49-11.67-0.77
			c-0.36,16.55-0.17,33.12,0.15,49.66C280.72-90.28,279.87-83.8,279.86-77.33z"/>
		<path fill="#84A094" d="M36.15-98.67c14,8.16,29.14,14.42,44.96,17.99c4.71,1.17,9.37,2.88,14.31,2.63
			c0.85,0.47,1.71,0.96,2.58,1.46c4.05,0.17,8.17,0.11,12.15,1.03c1.33-2.58,2.76-5.1,3.95-7.73c-6.89-1.36-13.23-4.56-19.99-6.39
			c-18.27-5.48-36.59-11.07-55.36-14.54C37.94-102.35,37.04-100.51,36.15-98.67z"/>
		<path fill="#97B2A7" d="M123.55-81.94c11.19,0.47,22.21,2.53,33.35,3.52c13.48,1.42,27,2.24,40.5,3.36
			c1.02-7.66,1.75-15.36,2.22-23.07c-10.4-1.85-20.96-2.57-31.35-4.51c-12.29-1.89-24.54-4.08-36.73-6.54
			c-1.83-0.74-2.59,1.25-3.47,2.44C126.22-98.56,124.16-90.33,123.55-81.94z"/>
		<path fill="#97B2A6" d="M273.24-71.04c3.69,0.31,4.65-4.02,6.62-6.29c0.01-6.47,0.86-12.95,0.1-19.41
			c-6.13,1.46-12.46,0.68-18.69,0.84c-17.25-0.2-34.52-0.16-51.74-1.36c-1.07,8.41-1.32,16.91-1.62,25.37
			C229.69-72.35,251.46-70.49,273.24-71.04z"/>
		<path fill="#97B4A7" d="M290.92-63.64c1.28-1.86,2.42-3.88,4.26-5.26c5.88-4.64,11.84-9.18,17.52-14.07
			c-6.83-5.47-14.18-10.4-21.83-14.64c-0.31,11.32-0.29,22.65-0.2,33.98L290.92-63.64z"/>
		<path fill="#819C91" d="M124.21-73.8c22.74,2.18,45.48,4.43,68.26,6.18c1.28-0.1,2.57-0.18,3.87-0.25
			c0.34-2.41,0.71-4.8,1.06-7.19c-13.5-1.12-27.02-1.94-40.5-3.36c-11.14-0.99-22.16-3.05-33.35-3.52
			C123.68-79.23,123.96-76.52,124.21-73.8z"/>
		<g id="_x23_404f4a87_3_">
			<path opacity="0.53" fill="#404F4A" enable-background="new    " d="M263.24-63.37c13.05-0.23,26.11,0.73,39.15-0.04
				c-3.83-0.01-7.65-0.23-11.47-0.23l-0.25,0.01c-3.63,0.17-7.26,0.17-10.88,0.02c-23.93-0.38-47.83-1.5-71.71-3.08
				c-0.74-0.04-2.23-0.1-2.97-0.14C224.36-64.6,243.86-64.38,263.24-63.37z"/>
		</g>
	</g>
</pattern>
<g id="_x23_686767ff">
	<path fill="#686767" d="M149.488,440.112c43.01-0.026,86.02,0.005,129.036-0.005c0,3.656,0,7.317,0,10.973
		c-43.01,0.084-86.02,0.021-129.031,0.042C149.488,447.455,149.488,443.783,149.488,440.112z"/>
</g>
<g id="_x23_6c6b6bff">
	<path fill="#6C6B6B" d="M18.889,440.106c43.535-0.01,87.064,0,130.599,0.005c0,3.672,0,7.343,0.005,11.01
		c-43.535-0.031-87.069,0.047-130.604-0.037C18.889,447.423,18.889,443.768,18.889,440.106z"/>
</g>
<path fill="#504F4F" d="M111.106,74.828c1.373-3.929,5.109-6.998,9.3-7.313c4.175-0.72,8.597,1.324,10.89,4.856
	c1.56,2.216,1.951,5.007,1.842,7.655c-0.409,4.219-3.422,8.103-7.486,9.386c-1.607,0.415-3.268,0.62-4.929,0.672
	c-4.397-0.391-8.412-3.548-9.703-7.791C110.418,79.862,110.189,77.217,111.106,74.828z"/>
<path fill="#504F4F" d="M71.94,245.563c16.808-1.762,34.334,3.215,47.301,14.151c12.739,10.206,20.908,25.65,22.818,41.799
	c1.232,10.208-0.224,20.675-3.75,30.313c-3.814,9.811-10.104,18.629-18.063,25.502c-9.776,8.46-22.256,13.604-35.069,14.987
	c-0.445-4.172-0.896-8.344-1.283-12.518c17.836-1.563,34.262-13.516,41.426-29.893c3.99-8.727,5.476-18.606,4.085-28.112
	c-1.303-9.826-5.762-19.117-12.246-26.579c-10.704-12.338-27.63-19.101-43.888-17.128C72.8,253.911,72.433,249.73,71.94,245.563z"/>
<path fill="#504F4F" d="M214.77,239.145c8.241-0.927,16.656,0.168,24.498,2.806c15.027,5.242,27.546,17.328,33.059,32.289
	c6.337,16.078,4.472,35.13-4.904,49.655c-8.84,14.21-24.607,23.684-41.217,25.267c-0.322-3.394-0.717-6.781-0.976-10.176
	c1.041-0.335,2.086-0.681,3.145-0.992c5.972-1.244,11.805-3.36,16.854-6.834c7.551-4.969,13.508-12.329,16.758-20.768
	c4.247-10.156,4.034-21.873,0.269-32.139c-2.947-7.282-7.668-13.925-13.842-18.819c-9.037-7.322-21.01-10.779-32.566-9.48
	C215.51,246.346,215.098,242.75,214.77,239.145z"/>
<path fill="#504F4F" d="M238.766,463.39c5.077-0.75,10.448,1.458,13.632,5.46c3.85,5.098,3.95,12.557,0.199,17.734
	c-3.325,4.532-9.473,6.85-14.959,5.555c-2.869-0.577-5.486-2.135-7.584-4.144c-4.002-4.338-5.104-11.114-2.497-16.438
	C229.461,467.061,234.019,464.061,238.766,463.39 M239.285,467.497c-4.815,0.572-8.864,4.93-8.969,9.793
	c-0.268,3.457,1.374,6.929,4.159,8.98c4.82,3.829,12.714,2.119,15.505-3.378c2.109-3.834,1.521-9.016-1.553-12.169
	C246.156,468.205,242.621,467.03,239.285,467.497z"/>
<path fill="#504F4F" d="M197.948,473.922c6.861-0.886,14.062,0.96,19.643,5.056c7.008,4.93,11.036,13.506,11.088,21.993
	c-0.11,5.492-1.663,11.025-4.867,15.526c-5.051,7.674-14.387,12.027-23.488,11.676c-4.993-0.289-9.966-1.752-14.109-4.584
	c-8.146-5.229-12.73-15.221-11.964-24.794c0.483-5.025,2.192-9.976,5.214-14.041C183.729,478.732,190.689,474.892,197.948,473.922
	 M197.445,478.212c-8.843,1.448-16.402,8.508-18.437,17.236c-1.909,7.553,0.341,16.029,5.859,21.552
	c4.364,4.611,10.747,7.186,17.078,7.013c5.859-0.105,11.649-2.554,15.767-6.729c4.71-4.621,7.223-11.361,6.724-17.933
	c-0.462-7.642-5.051-14.88-11.775-18.547C208.092,478.202,202.616,477.321,197.445,478.212z"/>
<path fill="#504F4F" d="M241.399,499.057c3.735-0.53,7.794,0.608,10.38,3.441c3.163,2.848,4.196,7.501,3.247,11.555
	c-0.587,3.504-3.21,6.331-6.184,8.072c-3.43,1.668-7.59,1.689-11.078,0.184c-2.339-1.217-4.306-3.163-5.618-5.444
	c-1.642-3.436-1.657-7.579-0.152-11.057C233.862,502.282,237.318,499.403,241.399,499.057 M240.979,503.331
	c-3.535,0.892-6.205,4.422-5.948,8.088c-0.073,4.348,4.002,8.167,8.335,7.847c4.558,0.084,8.445-4.38,7.815-8.885
	C250.935,505.503,245.621,501.936,240.979,503.331z"/>
<path fill="#504F4F" d="M459.314,526.578c6.682-3.436,14.875-3.373,21.725-0.414c6.703,3.352,11.917,9.457,13.936,16.706
	c1.018,4.102,0.976,8.481,0.042,12.599c-1.327,4.154-3.367,8.151-6.467,11.272c-2.743,2.911-6.273,4.936-9.95,6.415
	c-8.161,2.733-17.776,1.102-24.29-4.61c-5.875-4.978-9.363-12.651-8.974-20.367C445.561,539.098,451.284,530.664,459.314,526.578
	 M466.967,537.834c-3.992,1.028-7.38,4.249-8.455,8.251c-0.871,3.409-0.325,7.249,1.815,10.097c2.098,2.885,5.534,4.794,9.132,4.846
	c4.275,0.236,8.534-2.15,10.648-5.854c1.637-2.649,1.616-5.932,1.175-8.906C479.875,540.147,473.014,536.087,466.967,537.834z"/>
<path fill="#504F4F" d="M55.611,715.477c12.761,0,25.523,0,38.284,0c0,6.987,0,13.968,0,20.96
	c-12.761,0.037-25.528,0.052-38.29-0.016C55.605,729.439,55.6,722.458,55.611,715.477z"/>
<path fill="#504F4F" d="M197.23,715.477c12.761,0,25.518-0.005,38.279,0c0.01,6.981,0.005,13.963,0.005,20.949
	c-12.761,0.052-25.528,0.063-38.29-0.01C197.224,729.439,197.219,722.458,197.23,715.477z"/>
<path fill="#504F4F" d="M55.605,749.607c12.761-0.058,25.528-0.063,38.29-0.005c0,6.792,0,13.59,0,20.388
	c-12.761,0.073-25.528,0.037-38.29,0.005C55.605,763.197,55.605,756.405,55.605,749.607z"/>
<path fill="#504F4F" d="M197.224,749.591c12.761-0.026,25.528-0.052,38.29,0.01c0,6.803,0,13.601,0,20.404
	c-12.761,0.032-25.528,0.053-38.29-0.016C197.224,763.192,197.224,756.389,197.224,749.591z"/>
<path fill="#504F4F" d="M55.605,783.155c12.761-0.021,25.528-0.042,38.29,0.016c0,7.495,0,14.991,0,22.491
	c-12.761,0.042-25.528,0.073-38.29-0.01C55.6,798.151,55.605,790.65,55.605,783.155z"/>
<path fill="#504F4F" d="M197.224,783.176c12.761-0.068,25.528-0.058,38.29,0c0,7.495,0,14.985,0,22.481
	c-12.761,0.047-25.528,0.073-38.29-0.005C197.224,798.161,197.224,790.666,197.224,783.176z"/>
<path fill="#504F4F" d="M55.605,818.848c12.761-0.063,25.528-0.079,38.29,0c0,7.139,0,14.277-0.005,21.416
	c-12.756,0.094-25.523,0.047-38.284,0.021C55.605,833.136,55.605,825.992,55.605,818.848z"/>
<path fill="#504F4F" d="M197.224,818.848c12.761-0.079,25.528-0.052,38.29-0.005c0,7.144,0,14.293,0,21.442
	c-12.761,0.047-25.528,0.037-38.29,0C197.224,833.136,197.219,825.992,197.224,818.848z"/>
<path fill="#504F4F" d="M55.605,853.466c12.761-0.079,25.528-0.052,38.29-0.016c-0.005,7.553,0.016,15.111-0.01,22.669
	c-11.901-5.513-25.806-6.378-38.279-2.287C55.605,867.041,55.6,860.253,55.605,853.466z"/>
<path fill="#504F4F" d="M197.224,853.45c12.761-0.042,25.528-0.058,38.29,0.01c-0.005,7.097,0.016,14.193-0.016,21.295
	c-8.964-3.357-18.809-4.432-28.245-2.644c-3.43,0.608-6.745,1.694-10.023,2.859C197.219,867.796,197.224,860.626,197.224,853.45z"/>
<g id="_x23_595858ff">
	<path fill="#595858" d="M120.722,90.084c1.661-0.052,3.322-0.256,4.929-0.672c0.346,3.418,0.834,6.843,0.775,10.276
		c-2.192,1.742-4.992,2.598-7.073,4.492c6.297,0.915,12.634,1.558,18.929,2.5c0.991,0.203,2.277,0.29,2.776,1.335
		c0.723,1.117,0.232,2.734-0.893,3.378c-5.725,3.26-12.036,5.399-17.74,8.662c6.709,1.579,13.755,1.436,20.356,3.548
		c0.521,0.8,0.584,1.806,0.696,2.733c-0.386,0.552-1.046,0.789-1.59,1.141c-6.582,3.739-13.653,6.527-20.274,10.197
		c3.364,1.769,7.024,2.881,10.461,4.484c1.549,7.227,1.929,14.665,3.209,21.941c3.117,0.261,6.23,1.487,8.396,3.803
		c-2.66,0.288-5.314,0.627-7.977,0.879c-3.877,0.393-7.744,0.833-11.626,1.132c1.775-2.041,4.165-3.398,6.17-5.162
		c-0.626-6.363-1.459-12.742-2.542-19.031c-3.392-1.677-7.01-2.845-10.482-4.34c-1.412-0.697-3.405-0.948-3.976-2.629
		c-0.464-0.906,0.178-1.833,0.377-2.713c6.333-3.244,12.84-6.137,19.212-9.306c-7.313-1.205-14.712-1.858-21.985-3.336
		c0.443-1.823,0.71-4.324,2.836-4.92c5.575-2.369,11-5.07,16.514-7.569c-6.074-1.503-12.356-1.924-18.554-2.644
		c-1.315-0.575-2.91-1.564-2.921-3.182c0.558-1.582,2.293-2.185,3.62-2.966c2.998-1.799,6.094-3.409,9.137-5.129
		C121.212,94.69,120.967,92.389,120.722,90.084z"/>
	<path fill="#595858" d="M110.376,393.278c1.539-1.125,3.557-0.988,5.361-1.239c14.254-1.469,28.511-2.918,42.757-4.46
		c13.225-1.325,26.45-2.603,39.66-4.069c1.587-0.107,3.549-0.459,4.767,0.853c1.43,1.676,1.234,4.053,1.554,6.108
		c0.429,3.104,0.439,6.293,1.34,9.316c-3.51,0.782-6.547,2.712-9.747,4.238c-1.875,1.039-3.829-0.255-5.758-0.297
		c-1.389,0.793-2.342,2.422-4.055,2.537c-1.662,0.142-3.45,0.697-5.058,0.242c-2.16-2.712-3.933-5.76-5.188-8.994
		c-0.603-1.382-1.135-2.845-2.15-3.984c-0.811-0.496-1.199,0.694-1.626,1.15c-2.333,4.024-3.834,8.552-6.786,12.209
		c-1.168,1.498-2.994,2.189-4.709,2.837c-1.122-1.054-2.02-2.637-3.534-3.091c-2.323,0.527-2.979,3.696-5.144,4.433
		c-1.913-1.156-3.359-2.935-5.208-4.182c-1.04,1.759-2.306,3.431-4.162,4.389c-0.873-1.802-1.341-4.163-3.358-5.045
		c-2.017,1.391-2.66,3.932-4.183,5.757c-1.268-0.828-1.159-2.621-1.729-3.891c-1.277-3.4-2.001-7.011-3.522-10.317
		c-0.254-0.87-1.263-0.738-1.947-0.968c-2.077,4.862-4.362,9.715-5.439,14.916c-0.222,1.057-0.128,3.272,1.377,3.089
		c2.696-3.434,2.732-8.142,4.851-11.854c1.174,3.828,2.604,7.581,4.149,11.275c0.54,1.383,1.612,2.764,3.227,2.828
		c1.327-1.836,2.126-3.992,3.368-5.888c1.162,1.487,2.058,3.155,3.128,4.71c1.504-1.412,2.809-3.103,4.626-4.137
		c1.888,0.763,2.897,2.804,4.716,3.611c1.62-0.29,2.361-1.934,3.126-3.2c1.683-0.444,3.344-0.148,4.603,1.108
		c0.145-0.131,0.434-0.393,0.573-0.524c0.242,1.515,1.041,2.908,2.435,3.633c0.736-0.172,1.043-0.921,1.439-1.479
		c2.798-4.632,5.448-9.359,7.887-14.19c0.441-0.832,0.994-1.596,1.548-2.35c1.738,4.08,2.994,8.495,5.917,11.945
		c2.911-0.256,5.82-0.527,8.735-0.689c1.469,0.079,2.419-1.175,3.608-1.81c1.488,0.008,3.002,0.721,4.471,0.141
		c3.425-1.143,6.535-3.022,9.869-4.382c-0.448,4.403,1.017,8.748,0.821,13.146c-0.135,2.044-2.185,3.075-4.017,3.15
		c-13.554,1.407-27.106,2.835-40.652,4.32c-14.976,1.523-29.947,3.104-44.912,4.685c-1.348,0.125-2.87,0.188-3.977-0.719
		c-1.162-0.881-1.244-2.47-1.455-3.788c-0.365-3.606-0.777-7.207-1.079-10.814c1.124,0.062,2.412-0.13,3.336,0.691
		c2.085,1.687,3.814,3.758,5.7,5.661c1.658-0.842,2.79-2.632,2.129-4.515c-1.289-0.731-2.765-1.025-4.066-1.723
		c-1.617-0.944-2.63-2.669-4.298-3.539c-1.061-0.412-2.233-0.126-3.334-0.111c-0.525-4.08-0.783-8.177-1.219-12.26
		C108.987,396.196,109.013,394.316,110.376,393.278z"/>
</g>
<path fill="#919191" d="M-41.241,188.614c2.292-0.677,4.467-1.815,6.861-2.123c41.382-4.301,82.766-8.623,124.147-12.93
	c11.436-1.239,22.891-2.295,34.309-3.648c3.882-0.299,7.749-0.739,11.626-1.132c7.573,72.935,15.182,145.866,22.791,218.798
	c-14.247,1.542-28.503,2.991-42.757,4.46c-1.804,0.251-3.822,0.113-5.361,1.239c-1.363,1.039-1.389,2.919-1.233,4.469
	c0.436,4.084,0.694,8.181,1.219,12.26c1.101-0.014,2.273-0.3,3.334,0.111c1.667,0.87,2.68,2.595,4.298,3.539
	c1.301,0.698,2.777,0.992,4.066,1.723c0.66,1.882-0.472,3.672-2.129,4.515c-1.886-1.902-3.615-3.974-5.7-5.661
	c-0.924-0.821-2.212-0.629-3.336-0.691c0.302,3.607,0.714,7.208,1.079,10.814c0.211,1.317,0.292,2.907,1.455,3.788
	c1.107,0.908,2.63,0.844,3.977,0.719c14.965-1.58,29.935-3.161,44.912-4.685c0.613,6.692,1.43,13.367,2.068,20.056
	c-43.301,4.506-86.597,9.007-129.896,13.529c-13.387,1.395-26.774,2.784-40.159,4.189c-1.799,0.193-3.57-0.256-5.35-0.434
	c-1.677-0.252-3.429-0.26-5.007-0.934c-3.146-1.544-6.345-3.247-8.474-6.12c-3.117-2.887-3.816-7.223-5.2-11.034
	c-2.06-18.454-3.864-36.939-5.83-55.403c-4.617-44.318-9.235-88.641-13.853-132.958c-1.492-14.268-2.963-28.538-4.47-42.804
	c-0.559-3.491,0.382-6.964,0.749-10.425c0.782-2.771,2.409-5.271,4.071-7.591C-46.722,192.044-44.449,189.46-41.241,188.614
	 M10.298,193.586c-1.635,0.656-3.142,1.936-3.819,3.583c-0.302,2.215-0.018,5.144,2.259,6.241c1.326,0.632,2.742,1.618,4.279,1.189
	c2.311-0.541,4.563-2.516,4.56-5.026c0.016-1.768-0.217-3.806-1.696-4.986C14.303,193.448,12.173,192.747,10.298,193.586
	 M-11.532,201.751c-3.566,1.152-6.912,2.851-10.289,4.447c-9.268,5.19-17.25,13.969-18.841,24.766
	c-0.037,3.142-0.774,6.746,1.238,9.453c0.969,0.843,2.023,2.21,3.43,2.042c5.007-2.004,7.339-7.209,9.711-11.664
	c2.321-3.944,4.607-8.063,8.25-10.958c3.827-3.964,8.773-6.504,13.587-9.041c2.2-1.505,5.063-3.291,5.023-6.303
	c-1.052-1.694-2.661-3.272-4.741-3.493C-6.631,200.708-9.137,201.159-11.532,201.751 M32.265,265.375
	c-3.88,3.864-6.882,8.506-9.539,13.265c-4.726,8.44-6.963,18.054-7.598,27.65c-0.164,5.971,0.445,11.962,1.769,17.788
	c2.443,8.969,6.339,17.665,12.299,24.865c3.882,4.663,8.215,9.048,13.323,12.371c12.272,8.657,27.76,12.449,42.66,11.002
	c12.813-1.382,25.292-6.527,35.069-14.987c7.959-6.873,14.249-15.692,18.063-25.502c3.526-9.638,4.982-20.105,3.75-30.313
	c-1.909-16.149-10.079-31.593-22.818-41.799c-12.968-10.936-30.494-15.913-47.301-14.151
	C56.967,247.265,42.494,254.231,32.265,265.375z"/>
<path fill="#919191" d="M127.952,396.81c0.683,0.229,1.692,0.098,1.947,0.968c1.52,3.306,2.245,6.917,3.522,10.317
	c0.57,1.27,0.462,3.063,1.729,3.891c1.524-1.825,2.166-4.365,4.183-5.757c2.017,0.882,2.484,3.243,3.358,5.045
	c1.857-0.958,3.122-2.63,4.162-4.389c1.849,1.247,3.295,3.027,5.208,4.182c2.164-0.737,2.82-3.906,5.144-4.433
	c1.513,0.454,2.411,2.038,3.534,3.091c1.715-0.648,3.541-1.339,4.709-2.837c2.952-3.656,4.452-8.184,6.786-12.209
	c0.427-0.456,0.815-1.646,1.626-1.15c1.015,1.139,1.547,2.602,2.15,3.984c1.255,3.234,3.028,6.282,5.188,8.994
	c1.608,0.455,3.396-0.101,5.058-0.242c1.712-0.115,2.666-1.744,4.055-2.537c1.929,0.042,3.883,1.336,5.758,0.297
	c3.2-1.525,6.237-3.455,9.747-4.238c0.427,1.216,0.619,2.498,0.351,3.776c-3.334,1.36-6.444,3.24-9.869,4.382
	c-1.469,0.58-2.983-0.132-4.471-0.141c-1.189,0.635-2.139,1.889-3.608,1.81c-2.915,0.161-5.824,0.433-8.735,0.689
	c-2.922-3.45-4.179-7.865-5.917-11.945c-0.554,0.754-1.107,1.518-1.548,2.35c-2.439,4.832-5.09,9.559-7.887,14.19
	c-0.395,0.558-0.702,1.307-1.439,1.479c-1.394-0.725-2.193-2.118-2.435-3.633c-0.139,0.131-0.428,0.393-0.573,0.524
	c-1.259-1.256-2.92-1.552-4.603-1.108c-0.765,1.266-1.506,2.91-3.126,3.2c-1.819-0.807-2.828-2.848-4.716-3.611
	c-1.817,1.033-3.123,2.725-4.626,4.137c-1.069-1.555-1.965-3.223-3.128-4.71c-1.242,1.896-2.041,4.052-3.368,5.888
	c-1.615-0.064-2.687-1.444-3.227-2.828c-1.545-3.694-2.975-7.447-4.149-11.275c-2.118,3.712-2.155,8.42-4.851,11.854
	c-1.505,0.183-1.599-2.033-1.377-3.089C123.59,406.525,125.874,401.672,127.952,396.81z"/>
<path fill="#919191" d="M18.889,451.085c43.535,0.084,87.069,0.005,130.604,0.037c0.021,88.118-0.042,176.237,0.031,264.355
	c-18.547,0-37.088,0-55.63,0c-12.761,0-25.523,0-38.284,0c-12.242,0-24.479,0-36.721,0c0-61.714,0-123.429,0-185.143
	c-0.01-3.137,0.042-6.278-0.068-9.415c0.178-10.317,0-20.64,0.079-30.957c0-4.731-0.005-9.457-0.005-14.188
	c0.026-2.486-0.042-4.972-0.047-7.453C18.937,462.577,18.863,456.833,18.889,451.085 M45.65,482.073
	c-0.005,5.943-0.021,11.88,0.005,17.823c30.936,0.016,61.867-0.005,92.802,0.01c0.042-5.948,0.026-11.896,0.01-17.839
	C107.527,482.068,76.586,482.062,45.65,482.073 M45.65,508.288c-0.037,5.943,0.005,11.88-0.01,17.823
	c30.941,0.037,61.887,0.01,92.834,0.01c0.005-5.943,0.01-11.885,0-17.823C107.532,508.283,76.591,508.304,45.65,508.288z"/>
<path fill="#858585" d="M135.703,168.781c2.663-0.251,5.317-0.591,7.977-0.879c50.557-5.167,101.095-10.517,151.644-15.757
	c1.363-0.131,2.709,0.187,4.064,0.336c2.427,0.369,5.034,0.335,7.172,1.721c2.928,1.43,5.597,3.361,7.584,5.976
	c2.41,2.275,2.96,5.63,4.122,8.588c0.826,1.96,0.814,4.118,1.062,6.196c1.532,14.701,3.058,29.398,4.6,44.098
	c4.595,44.151,9.19,88.308,13.801,132.457c1.806,17.489,3.644,34.974,5.461,52.462c0.093,2.358-0.525,4.68-0.713,7.025
	c-0.124,2.555-1.637,4.69-2.841,6.846c-1.342,2.455-3.615,4.174-5.702,5.963c-1.515,1.297-3.519,1.706-5.336,2.391
	c-1.684,0.545-3.315,1.332-5.1,1.46c-10.259,1.048-20.514,2.127-30.77,3.195c-42.783,4.468-85.565,8.894-128.341,13.377
	c-0.639-6.689-1.456-13.364-2.068-20.056c13.546-1.485,27.098-2.913,40.652-4.32c1.833-0.075,3.882-1.106,4.017-3.15
	c0.196-4.397-1.27-8.743-0.821-13.146c0.268-1.278,0.076-2.56-0.351-3.776c-0.9-3.023-0.911-6.212-1.34-9.316
	c-0.32-2.055-0.124-4.433-1.554-6.108c-1.218-1.313-3.18-0.961-4.767-0.853c-13.21,1.466-26.435,2.744-39.66,4.069
	C150.885,314.648,143.276,241.716,135.703,168.781 M178.997,257.897c-11.757,13.243-16.206,32.386-11.901,49.514
	c1.319,4.461,2.694,8.953,5.051,12.995c4.394,8.412,11.207,15.497,19.212,20.553c10.246,6.579,22.772,9.324,34.848,8.203
	c16.61-1.583,32.377-11.057,41.217-25.267c9.377-14.525,11.241-33.577,4.904-49.655c-5.514-14.961-18.032-27.047-33.059-32.289
	c-7.842-2.637-16.257-3.733-24.498-2.806C201.076,240.672,187.951,247.361,178.997,257.897z"/>
<path fill="#858585" d="M149.494,451.121c43.01-0.021,86.02,0.042,129.031-0.042c0.01,5.476-0.016,10.952,0.01,16.433
	c0.273-0.021,0.813-0.052,1.081-0.068c-0.252,0.147-0.761,0.435-1.012,0.582c-0.163,9.079-0.058,18.164-0.063,27.249
	c-0.068,2.329-0.005,4.658,0.11,6.992c-0.257,4.207-0.089,8.429-0.094,12.641c-0.073,7.516-0.052,15.027,0.021,22.538
	c-0.121,59.344-0.016,118.687-0.052,178.031c-14.34,0-28.675-0.005-43.015,0c-12.761-0.005-25.518,0-38.279,0
	c-15.903-0.005-31.807,0-47.705,0C149.452,627.358,149.515,539.24,149.494,451.121 M238.766,463.39
	c-4.747,0.671-9.305,3.672-11.209,8.167c-2.607,5.324-1.505,12.101,2.497,16.438c2.098,2.009,4.715,3.567,7.584,4.144
	c5.486,1.296,11.634-1.023,14.959-5.555c3.75-5.177,3.651-12.636-0.199-17.734C249.214,464.848,243.843,462.64,238.766,463.39
	 M197.948,473.922c-7.259,0.97-14.22,4.81-18.484,10.831c-3.021,4.065-4.731,9.016-5.214,14.041
	c-0.766,9.572,3.818,19.564,11.964,24.794c4.144,2.832,9.116,4.296,14.109,4.584c9.1,0.351,18.437-4.002,23.488-11.676
	c3.205-4.5,4.757-10.034,4.867-15.526c-0.052-8.487-4.081-17.062-11.088-21.993C212.011,474.882,204.809,473.036,197.948,473.922
	 M241.399,499.057c-4.081,0.346-7.537,3.226-9.405,6.75c-1.505,3.478-1.49,7.621,0.152,11.057c1.311,2.282,3.278,4.228,5.618,5.444
	c3.488,1.505,7.647,1.484,11.078-0.184c2.974-1.741,5.597-4.568,6.184-8.072c0.949-4.054-0.084-8.707-3.247-11.555
	C249.193,499.665,245.134,498.527,241.399,499.057z"/>
<path fill="#858585" d="M480.253,524.354c11.901-8.665,23.378-17.933,35.893-25.717c15.856,0.42,30.48,7.469,45.979,10.008
	c-0.189,8.214-0.54,16.444-1.558,24.6c-5.985-1.909-12.153-3.184-18.201-4.873c-6.793-1.663-13.533-3.561-20.404-4.847
	c-8.88,6.609-17.828,13.129-26.986,19.344c-2.019-7.249-7.233-13.354-13.936-16.706C480.279,525.917,479.392,525.01,480.253,524.354
	z"/>
<path fill="#858585" d="M466.967,537.834c6.048-1.747,12.908,2.313,14.314,8.434c0.441,2.974,0.462,6.258-1.175,8.906
	c-2.114,3.703-6.373,6.09-10.648,5.854c-3.598-0.052-7.034-1.962-9.132-4.846c-2.14-2.848-2.686-6.688-1.815-10.097
	C459.587,542.083,462.975,538.862,466.967,537.834z"/>
<path fill="#858585" d="M488.551,566.74c3.1-3.121,5.14-7.118,6.467-11.272c7.27,6.037,13.05,13.622,20.283,19.695
	c1.18,0.976,2.213,2.539,3.95,2.429c12.809,0.005,25.429-2.743,38.221-3.1c-0.435,8.078-1.332,16.124-1.883,24.196
	c-6.845,0.682-13.711,1.164-20.577,1.5c-2.785,0.205-5.649-0.189-8.329,0.745c-6.163,0.252-12.268,1.364-18.431,1.705
	c-9.856-9.856-19.171-20.262-29.651-29.483C482.277,571.676,485.807,569.651,488.551,566.74z"/>
<path fill="#858585" d="M55.605,736.421c12.761,0.068,25.528,0.052,38.29,0.016c0,4.385,0,8.775,0,13.165
	c-12.761-0.058-25.528-0.052-38.29,0.005C55.605,745.211,55.605,740.816,55.605,736.421z"/>
<path fill="#858585" d="M197.224,736.415c12.761,0.073,25.528,0.063,38.29,0.01c0,4.39,0,8.78,0,13.176
	c-12.761-0.063-25.528-0.037-38.29-0.01C197.224,745.201,197.219,740.806,197.224,736.415z"/>
<path fill="#858585" d="M55.605,769.995c12.761,0.032,25.528,0.068,38.29-0.005c0,4.39,0,8.786,0,13.181
	c-12.761-0.058-25.528-0.037-38.29-0.016C55.605,778.765,55.605,774.38,55.605,769.995z"/>
<path fill="#858585" d="M197.224,769.99c12.761,0.068,25.528,0.047,38.29,0.016c0,4.39,0,8.78,0,13.171
	c-12.761-0.058-25.528-0.068-38.29,0C197.224,778.78,197.224,774.385,197.224,769.99z"/>
<path fill="#858585" d="M55.605,805.651c12.761,0.084,25.528,0.052,38.29,0.01c0,4.395,0,8.791,0,13.186
	c-12.761-0.079-25.528-0.063-38.29,0C55.605,814.447,55.605,810.047,55.605,805.651z"/>
<path fill="#858585" d="M197.224,805.651c12.761,0.079,25.528,0.052,38.29,0.005c0,4.39,0,8.791,0,13.186
	c-12.761-0.047-25.528-0.073-38.29,0.005C197.219,814.447,197.224,810.047,197.224,805.651z"/>
<path fill="#858585" d="M55.605,840.285c12.761,0.026,25.528,0.073,38.284-0.021c0.005,4.39,0.005,8.786,0.005,13.186
	c-12.761-0.037-25.528-0.063-38.29,0.016C55.605,849.071,55.605,844.675,55.605,840.285z"/>
<path fill="#858585" d="M197.224,840.285c12.761,0.037,25.528,0.047,38.29,0c0,4.39,0,8.78,0,13.176
	c-12.761-0.068-25.528-0.052-38.29-0.01C197.224,849.06,197.224,844.67,197.224,840.285z"/>
<g id="_x23_9d9d9dff">
	<path fill="#9D9D9D" d="M10.298,193.586c1.874-0.839,4.004-0.138,5.583,1c1.478,1.18,1.712,3.218,1.696,4.986
		c0.003,2.51-2.249,4.485-4.56,5.026c-1.537,0.429-2.953-0.557-4.279-1.189c-2.276-1.097-2.561-4.026-2.259-6.241
		C7.157,195.522,8.663,194.241,10.298,193.586z"/>
	<path fill="#9D9D9D" d="M-11.532,201.751c2.396-0.592,4.901-1.043,7.368-0.752c2.08,0.221,3.689,1.799,4.741,3.493
		c0.04,3.012-2.822,4.798-5.023,6.303c-4.814,2.537-9.76,5.077-13.587,9.041c-3.643,2.895-5.93,7.015-8.25,10.958
		c-2.373,4.456-4.705,9.661-9.711,11.664c-1.406,0.168-2.461-1.199-3.43-2.042c-2.012-2.707-1.275-6.311-1.238-9.453
		c1.591-10.797,9.573-19.576,18.841-24.766C-18.444,204.602-15.098,202.903-11.532,201.751z"/>
</g>
<path fill="#E44C2E" d="M-75.354,269.769c7.423-6.754,16.384-11.753,25.97-14.698c4.617,44.318,9.235,88.64,13.853,132.958
	c-18.837-1.565-36.783-11.387-48.199-26.456c-11.709-15.149-16.375-35.383-12.772-54.157
	C-93.8,293.001-86.227,279.592-75.354,269.769 M-72.925,285.136c-6.361,2.018-11.276,8.036-11.745,14.724
	c-0.066,2.401,0.658,5.1,2.775,6.493c1.785,1.749,4.521,1.834,6.82,1.33c4.988-1.374,9.154-5.22,11.239-9.914
	c1.332-3.108,1.803-6.838,0.177-9.938c-0.953-1.098-2.082-2.114-3.393-2.753C-68.963,284.591-71.047,284.429-72.925,285.136z"/>
<path fill="#E44C2E" d="M323.928,219.061c16.311,1.57,31.88,9.377,42.985,21.409c6.273,6.761,11.137,14.824,14.21,23.516
	c5.349,15.253,5.225,32.436-0.736,47.502c-7.233,18.852-23.353,34.048-42.658,40.03
	C333.118,307.368,328.523,263.212,323.928,219.061 M344.751,239.989c-2.235,0.417-3.705,2.353-4.751,4.208
	c-0.963,3.613,0.441,7.421,2.654,10.286c3.143,3.944,7.973,6.674,13.077,6.769c2.227-0.084,4.675-0.73,5.973-2.7
	c1.859-1.897,1.956-4.86,1.246-7.275c-1.429-4.55-5.001-8.317-9.326-10.25C350.839,239.914,347.714,239.079,344.751,239.989z"/>
<path fill="#E44C2E" d="M239.285,467.497c3.336-0.467,6.871,0.708,9.142,3.226c3.074,3.152,3.661,8.335,1.553,12.169
	c-2.79,5.497-10.684,7.207-15.505,3.378c-2.785-2.051-4.427-5.523-4.159-8.98C230.421,472.427,234.47,468.068,239.285,467.497z"/>
<path fill="#E44C2E" d="M197.445,478.212c5.172-0.892,10.648-0.01,15.216,2.591c6.724,3.666,11.314,10.905,11.775,18.547
	c0.498,6.572-2.014,13.312-6.724,17.933c-4.117,4.175-9.908,6.625-15.767,6.729c-6.331,0.173-12.714-2.402-17.078-7.013
	c-5.518-5.523-7.768-13.999-5.859-21.552C181.043,486.72,188.601,479.66,197.445,478.212 M197.922,484.412
	c-2.119,0.713-4.322,1.374-6.137,2.722c-4.71,3.273-7.695,9.1-7.149,14.865c0.624,7.967,7.674,14.917,15.699,15.211
	c5.607,0.367,11.183-2.581,14.366-7.149c2.628-3.724,3.687-8.529,2.659-12.987c-1.091-3.546-2.906-7.018-5.938-9.273
	C207.668,484.816,202.653,483.421,197.922,484.412z"/>
<path fill="#E44C2E" d="M240.979,503.331c4.642-1.395,9.955,2.171,10.202,7.049c0.629,4.506-3.257,8.969-7.815,8.885
	c-4.332,0.32-8.408-3.499-8.335-7.847C234.774,507.753,237.444,504.223,240.979,503.331z"/>
<path fill="#E44C2E" d="M55.605,873.833c12.473-4.091,26.378-3.226,38.279,2.287c17.729,8.02,29.824,27.06,29.389,46.54
	c-34.272,0-68.544,0-102.815,0c-0.22-9.882,2.827-19.732,8.156-28.02C34.877,884.906,44.554,877.342,55.605,873.833 M84.611,879.86
	c-3.189,0.43-5.89,3.415-5.749,6.682c0.037,7.107,5.775,13.302,12.421,15.174c2.906,0.96,6.499,0.509,8.544-1.941
	c1.852-1.563,2.019-4.212,1.815-6.446c-0.907-5.088-4.364-9.614-8.974-11.927C90.181,880.227,87.386,879.23,84.611,879.86z"/>
<path fill="#E44C2E" d="M207.253,872.113c9.436-1.789,19.281-0.713,28.245,2.644c9.966,3.803,18.615,10.915,24.385,19.879
	c5.329,8.287,8.371,18.143,8.156,28.025c-34.272,0-68.544,0-102.815,0c-0.483-20.467,12.929-40.33,32.006-47.689
	C200.508,873.807,203.823,872.721,207.253,872.113 M228.36,879.854c-2.303,0.121-3.96,1.893-5.166,3.682
	c-1.28,3.126-0.446,6.646,1.065,9.536c2.255,4.117,6.132,7.438,10.721,8.613c2.885,0.923,6.577,0.64,8.565-1.914
	c1.972-1.773,2.135-4.742,1.657-7.181c-1.143-4.768-4.453-8.985-8.828-11.198C233.899,880.211,231.124,879.199,228.36,879.854z"/>
<g id="_x23_555454ff">
	<path fill="#555454" d="M32.265,265.375c10.23-11.144,24.702-18.11,39.676-19.812c0.492,4.168,0.859,8.348,1.331,12.523
		c-11.3,1.072-22.056,6.306-30.132,14.235c-12.411,12.025-18.232,30.609-14.21,47.497c3.694,18.299,18.496,33.727,36.518,38.457
		c5.975,1.719,12.271,2.176,18.447,1.522c0.387,4.173,0.838,8.345,1.283,12.518c-14.9,1.447-30.388-2.345-42.66-11.002
		c-5.108-3.323-9.441-7.707-13.323-12.371c-5.96-7.2-9.857-15.896-12.299-24.865c-1.324-5.826-1.933-11.817-1.769-17.788
		c0.635-9.595,2.871-19.21,7.598-27.65C25.383,273.881,28.385,269.238,32.265,265.375z"/>
	<path fill="#555454" d="M178.997,257.897c8.954-10.536,22.079-17.224,35.773-18.751c0.328,3.605,0.74,7.2,1.079,10.809
		c-5.742,0.82-11.492,2.321-16.499,5.337c-6.482,3.639-12.154,8.818-16.061,15.158c-6.162,9.797-8.522,22.066-5.795,33.363
		c2.039,9.702,7.726,18.475,15.303,24.789c9,7.173,20.778,10.987,32.285,9.72c1.097-0.104,2.194-0.197,3.293-0.327
		c-1.059,0.311-2.104,0.657-3.145,0.992c0.259,3.396,0.654,6.782,0.976,10.176c-12.076,1.121-24.602-1.624-34.848-8.203
		c-8.005-5.057-14.818-12.141-19.212-20.553c-2.357-4.042-3.732-8.534-5.051-12.995C162.79,290.283,167.24,271.14,178.997,257.897z"
		/>
</g>
<g id="_x23_2b9c78ff">
	<path fill="#2B9C78" d="M43.14,272.321c8.076-7.929,18.831-13.163,30.132-14.235c1.768,16.87,3.537,33.741,5.268,50.615
		c-16.667,1.742-33.353,3.364-50.005,5.247c0.235,1.948,0.328,3.91,0.395,5.87C24.908,302.929,30.729,284.345,43.14,272.321z"/>
	<path fill="#2B9C78" d="M199.35,255.291c5.007-3.016,10.757-4.517,16.499-5.337c1.562,14.64,3.104,29.282,4.577,43.932
		c-3.676,0.399-7.354,0.787-11.033,1.155c-2.916-0.709-5.954-0.361-8.66,0.908c-7.827,0.9-15.681,1.539-23.495,2.522
		c0.169,1.775,0.228,3.557,0.256,5.342c-2.727-11.297-0.367-23.566,5.795-33.363C187.196,264.109,192.868,258.93,199.35,255.291z"/>
</g>
<path fill="#259974" d="M73.272,258.086c16.258-1.973,33.185,4.79,43.888,17.128c6.483,7.462,10.943,16.753,12.246,26.579
	c1.391,9.506-0.095,19.385-4.085,28.112c-7.164,16.377-23.59,28.33-41.426,29.893c-1.816-17.029-3.555-34.066-5.355-51.096
	C76.808,291.827,75.04,274.956,73.272,258.086 M94.279,306.201c-3.418,1.158-5.976,4.34-6.568,7.872
	c-0.092,2.963,0.254,6.281,2.491,8.468c2.664,2.797,7.04,4.456,10.774,2.938c2.254-1.142,4.556-2.632,5.688-4.985
	c2.091-4.126,1.16-9.819-2.68-12.609C101.384,305.508,97.529,305.203,94.279,306.201z"/>
<path fill="#259974" d="M215.849,249.955c11.556-1.299,23.529,2.158,32.566,9.48c6.174,4.894,10.895,11.537,13.842,18.819
	c3.764,10.266,3.978,21.982-0.269,32.139c-3.25,8.439-9.207,15.799-16.758,20.768c-5.049,3.474-10.882,5.59-16.854,6.834
	c-1.099,0.13-2.197,0.224-3.293,0.327c-1.559-14.809-3.066-29.629-4.656-44.435C218.952,279.237,217.411,264.595,215.849,249.955z"
	/>
<path fill="#259974" d="M45.65,508.288c30.941,0.016,61.882-0.005,92.823,0.01c0.01,5.938,0.005,11.88,0,17.823
	c-30.946,0-61.893,0.026-92.834-0.01C45.655,520.168,45.613,514.231,45.65,508.288z"/>
<path fill="#F1593C" d="M344.751,239.989c2.964-0.91,6.088-0.075,8.873,1.037c4.325,1.933,7.898,5.701,9.326,10.25
	c0.71,2.415,0.613,5.378-1.246,7.275c-1.298,1.97-3.746,2.616-5.973,2.7c-5.104-0.096-9.934-2.825-13.077-6.769
	c-2.213-2.865-3.617-6.674-2.654-10.286C341.046,242.342,342.516,240.407,344.751,239.989z"/>
<path fill="#F1593C" d="M-72.925,285.136c1.878-0.707,3.962-0.545,5.874-0.058c1.311,0.639,2.44,1.655,3.393,2.753
	c1.626,3.1,1.155,6.83-0.177,9.938c-2.084,4.694-6.251,8.54-11.239,9.914c-2.3,0.503-5.035,0.419-6.82-1.33
	c-2.117-1.393-2.842-4.092-2.775-6.493C-84.201,293.172-79.285,287.154-72.925,285.136z"/>
<path fill="#F1593C" d="M84.611,879.86c2.775-0.629,5.57,0.367,8.057,1.542c4.61,2.313,8.067,6.84,8.974,11.927
	c0.205,2.234,0.037,4.883-1.815,6.446c-2.046,2.45-5.639,2.901-8.544,1.941c-6.646-1.872-12.384-8.067-12.421-15.174
	C78.721,883.274,81.422,880.29,84.611,879.86z"/>
<path fill="#F1593C" d="M228.36,879.854c2.764-0.656,5.539,0.357,8.015,1.537c4.374,2.214,7.684,6.431,8.828,11.198
	c0.477,2.439,0.315,5.408-1.657,7.181c-1.988,2.554-5.68,2.838-8.565,1.914c-4.59-1.175-8.466-4.495-10.721-8.613
	c-1.511-2.89-2.345-6.41-1.065-9.536C224.4,881.748,226.057,879.975,228.36,879.854z"/>
<path fill="#38C296" d="M94.279,306.201c3.25-0.998,7.105-0.693,9.705,1.684c3.84,2.79,4.771,8.484,2.68,12.609
	c-1.131,2.354-3.433,3.844-5.688,4.985c-3.734,1.518-8.11-0.141-10.774-2.938c-2.237-2.187-2.583-5.505-2.491-8.468
	C88.303,310.542,90.861,307.359,94.279,306.201z"/>
<path fill="#38C296" d="M45.65,482.073c30.936-0.01,61.877-0.005,92.818-0.005c0.016,5.943,0.031,11.891-0.01,17.839
	c-30.936-0.016-61.867,0.005-92.802-0.01C45.629,493.953,45.645,488.016,45.65,482.073z"/>
<g id="_x23_3cc69cff">
	<path fill="#3CC69C" d="M200.733,295.948c2.705-1.268,5.743-1.616,8.66-0.908c2.668,1.568,5.086,4.074,5.113,7.367
		c0.838,4.453-2.621,8.753-6.871,9.723c-4.822,0.893-10.098-2.882-10.367-7.885C196.707,301.04,198.503,298.074,200.733,295.948z"/>
</g>
<g id="_x23_289f7aff">
	<path fill="#289F7A" d="M28.534,313.948c16.653-1.883,33.338-3.505,50.005-5.247c1.801,17.03,3.539,34.068,5.355,51.096
		c-6.176,0.654-12.472,0.197-18.447-1.522c-18.022-4.73-32.824-20.158-36.518-38.457C28.863,317.858,28.769,315.896,28.534,313.948z
		"/>
	<path fill="#289F7A" d="M177.239,298.47c7.813-0.983,15.667-1.622,23.495-2.522c-2.231,2.126-4.026,5.092-3.465,8.298
		c0.268,5.003,5.545,8.778,10.367,7.885c4.25-0.97,7.709-5.27,6.871-9.723c-0.027-3.293-2.445-5.799-5.113-7.367
		c3.68-0.368,7.357-0.756,11.033-1.155c1.59,14.806,3.097,29.626,4.656,44.435c-11.507,1.267-23.284-2.547-32.285-9.72
		c-7.577-6.314-13.263-15.087-15.303-24.789C177.467,302.027,177.408,300.246,177.239,298.47z"/>
</g>
<path fill="#829D94" d="M279.615,467.444l0.54-0.315c2.497,3.383,4.642,7.008,6.992,10.496c1.831,2.948,4.07,5.691,5.235,9.001
	c-4.631,2.853-9.226,5.775-13.842,8.649c0.005-9.085-0.1-18.169,0.063-27.249C278.855,467.88,279.363,467.591,279.615,467.444z"/>
<path fill="#829D94" d="M278.65,502.267c5.906-3.462,11.707-7.091,17.592-10.569c0.813,2.03,2.313,3.661,3.467,5.492
	c1.096,1.757,1.369,3.944,2.78,5.518c2.329,2.78,5.57,4.595,8.801,6.137c-2.838,3.079-4.647,6.892-6.331,10.679
	c-1.836,4.07-3.467,8.224-5.198,12.337c-5.187-1.112-10.029-3.666-13.747-7.464c-2.869-2.848-4.978-6.326-7.459-9.488
	C278.561,510.696,278.393,506.473,278.65,502.267z"/>
<path fill="#829D94" d="M315.036,510.454c9.756,3.624,19.994,5.707,30.207,7.569c-1.521,8.508-2.874,17.047-4.06,25.607
	c-4.049,0.226-8.004-0.897-11.959-1.584c-8.424-1.589-16.512-4.443-24.547-7.359C308.154,526.636,314.17,519.455,315.036,510.454z"
	/>
<path fill="#829D94" d="M351.065,518.931c6.231,1.018,12.515,1.678,18.778,2.512c2.575,0.351,5.229,0.157,7.768,0.834
	c2.266,0.745,4.705,0.388,7.034,0.876c-0.493,9.336-1.364,18.662-1.547,28.014c-5.455-0.97-10.994-1.348-16.444-2.366
	c-6.446-0.991-12.872-2.14-19.265-3.43c-0.96-0.388-1.358,0.656-1.82,1.28C348.07,537.561,349.911,528.283,351.065,518.931z"/>
<path fill="#829D94" d="M391.148,524.113c3.881,0.561,7.773-0.241,11.655,0.372c1.92,0.346,3.85-0.131,5.78,0.068
	c12.767,0.713,25.544,1.374,38.332,1.621c4.128,0.194,8.277,0.042,12.4,0.404c-8.03,4.086-13.753,12.52-13.978,21.6
	c-0.388,7.716,3.1,15.389,8.974,20.367c-5.754,0.572-11.534,0.656-17.309,0.834c-2.009-0.005-4.013-0.121-6.016-0.121
	c0.671-0.976,1.269-2.035,2.234-2.759c3.084-2.434,6.21-4.815,9.189-7.38c-3.582-2.869-7.438-5.455-11.45-7.679
	c0.042-8.398,0.635-16.795,0.32-25.187c-2.046-0.115-4.086-0.257-6.121-0.404c-0.189,8.681-0.089,17.372,0.079,26.047
	c-3.215,0.766-6.535,0.357-9.803,0.441c-9.048-0.105-18.106-0.084-27.138-0.713C389.27,542.455,390.33,533.297,391.148,524.113z"/>
<path fill="#829D94" d="M421.712,565.376c1.935,0.163,2.439-2.109,3.472-3.299c0.052,2.397,0.073,4.799-0.037,7.196
	c-12.552-0.199-25.088-0.787-37.613-1.616c-0.042-0.918-0.079-1.825-0.089-2.727C398.869,564.689,410.288,565.665,421.712,565.376z"
	/>
<path fill="#98B2A7" d="M298.718,547.973c1.747-4.532,3.855-8.912,5.958-13.286c8.036,2.916,16.124,5.77,24.547,7.359
	c3.955,0.687,7.91,1.81,11.959,1.584c-0.54,5.172-1.553,10.307-2.943,15.321c-3.614-0.713-6.939-2.392-10.485-3.352
	C318.172,552.725,308.563,549.793,298.718,547.973z"/>
<path fill="#436151" d="M292.382,486.626c0.121-0.073,0.367-0.22,0.488-0.294c1.086,1.81,2.334,3.52,3.373,5.366
	c-5.885,3.478-11.686,7.107-17.592,10.569c-0.115-2.334-0.178-4.663-0.11-6.992C283.156,492.401,287.75,489.479,292.382,486.626z"/>
<path fill="#436151" d="M311.291,508.844c1.243,0.54,2.486,1.081,3.745,1.61c-0.865,9.001-6.882,16.181-10.359,24.233
	c-2.103,4.374-4.212,8.754-5.958,13.286c-0.425,0.981-0.897,1.946-1.364,2.911c-1.689-0.97-3.341-1.993-4.983-3.026
	c2.219-5.439,5.172-10.553,7.39-15.998c1.731-4.112,3.362-8.266,5.198-12.337C306.643,515.736,308.453,511.923,311.291,508.844z"/>
<g id="_x23_cf452aff">
	<path fill="#CF452A" d="M197.922,484.412c4.731-0.991,9.745,0.404,13.501,3.388c3.032,2.255,4.847,5.728,5.938,9.273
		c1.028,4.458-0.031,9.263-2.659,12.987c-3.184,4.569-8.759,7.516-14.366,7.149c-8.025-0.294-15.075-7.244-15.699-15.211
		c-0.545-5.764,2.439-11.592,7.149-14.865C193.6,485.786,195.803,485.126,197.922,484.412z"/>
</g>
<path fill="#9AB2A8" d="M278.556,514.908c2.481,3.163,4.59,6.64,7.459,9.488c3.719,3.797,8.56,6.352,13.747,7.464
	c-2.219,5.444-5.172,10.558-7.39,15.998c-4.831-3.152-9.399-6.682-13.795-10.412C278.503,529.935,278.482,522.424,278.556,514.908z"
	/>
<path fill="#3A584E" d="M345.243,518.023c1.941,0.273,3.876,0.624,5.822,0.907c-1.154,9.352-2.995,18.631-5.497,27.721
	c-0.97,4.291-2.051,8.607-2.371,13.008c0.068,1.421,0.215,2.843,0.346,4.27c-2.449-0.404-4.957-0.346-7.375-0.923
	c0.698-1.353,1.448-2.675,2.072-4.055c1.39-5.014,2.402-10.149,2.943-15.321C342.368,535.07,343.721,526.531,345.243,518.023z"/>
<path fill="#385A4C" d="M384.676,522.765c2.177,0.273,4.359,0.514,6.509,0.976l-0.037,0.372c-0.818,9.184-1.878,18.342-2.853,27.511
	c-0.561,4.411-0.692,8.87-0.85,13.307c0.01,0.902,0.047,1.81,0.089,2.727c-0.388-0.021-1.17-0.052-1.558-0.073
	c-2.192-0.325-4.527,0.178-6.63-0.414c0.671-0.052,1.348-0.094,2.03-0.131c0.178-1.264,0.372-2.518,0.556-3.771
	c0.535-4.018,0.918-8.057,1.164-12.101c0.184-9.352,1.054-18.678,1.547-28.014L384.676,522.765z"/>
<path fill="#3A5C4E" d="M425.236,551.896c-0.168-8.675-0.268-17.367-0.079-26.047c2.035,0.147,4.075,0.289,6.121,0.404
	c0.315,8.392-0.278,16.79-0.32,25.187c-0.163,5.938-0.152,11.88-0.105,17.823c-1.904,0.089-3.808,0.089-5.707,0.01
	c0.11-2.397,0.089-4.799,0.037-7.196C425.189,558.684,425.635,555.285,425.236,551.896z"/>
<path fill="#84A094" d="M298.718,547.973c9.845,1.82,19.454,4.752,29.037,7.626c3.546,0.96,6.871,2.638,10.485,3.352
	c-0.624,1.379-1.374,2.701-2.072,4.055c-2.088-0.483-4.249-0.451-6.373-0.54c-0.456-0.262-0.907-0.519-1.353-0.766
	c-2.591,0.131-5.035-0.766-7.506-1.38c-8.298-1.872-16.239-5.156-23.582-9.436C297.821,549.919,298.293,548.954,298.718,547.973z"/>
<path fill="#97B2A7" d="M345.568,546.651c0.462-0.624,0.86-1.668,1.82-1.28c6.394,1.29,12.819,2.439,19.265,3.43
	c5.45,1.018,10.989,1.395,16.444,2.366c-0.247,4.044-0.629,8.083-1.164,12.101c-7.081-0.587-14.172-1.018-21.243-1.762
	c-5.843-0.519-11.623-1.6-17.493-1.846C343.517,555.258,344.597,550.942,345.568,546.651z"/>
<path fill="#97B2A6" d="M387.445,564.93c0.157-4.437,0.289-8.896,0.85-13.307c9.032,0.629,18.09,0.608,27.138,0.713
	c3.268-0.084,6.588,0.325,9.803-0.441c0.399,3.388-0.047,6.787-0.052,10.181c-1.033,1.191-1.537,3.462-3.472,3.299
	C410.288,565.665,398.869,564.689,387.445,564.93z"/>
<path fill="#97B4A7" d="M430.854,569.263c-0.047-5.943-0.058-11.885,0.105-17.823c4.013,2.224,7.868,4.81,11.45,7.679
	c-2.979,2.565-6.105,4.946-9.189,7.38c-0.965,0.724-1.563,1.783-2.234,2.759L430.854,569.263z"/>
<path fill="#819C91" d="M343.197,559.659c5.869,0.247,11.649,1.327,17.493,1.846c7.07,0.745,14.162,1.175,21.243,1.762
	c-0.184,1.254-0.378,2.507-0.556,3.771c-0.682,0.037-1.358,0.079-2.03,0.131c-11.948-0.918-23.876-2.098-35.803-3.241
	C343.412,562.502,343.265,561.081,343.197,559.659z"/>
<g id="_x23_404f4a87">
	<path opacity="0.53" fill="#404F4A" enable-background="new    " d="M385.976,567.585c0.388,0.021,1.17,0.052,1.558,0.073
		c12.525,0.829,25.061,1.416,37.613,1.616c1.899,0.079,3.803,0.079,5.707-0.01l0.131-0.005c2.004,0,4.007,0.115,6.016,0.121
		c-6.84,0.404-13.69-0.1-20.535,0.021C406.301,568.87,396.073,568.754,385.976,567.585z"/>
</g>
<text transform="matrix(1 0 0 1 486.7813 268.2979)" font-family="'Raleway-Regular'" font-size="37.7651">?</text>
<path fill="#504F4F" stroke="url(#Unnamed_Pattern)" stroke-miterlimit="10" d="M-161.923,526.381
	c8.03,4.086,13.753,12.52,13.978,21.599c0.388,7.716-3.1,15.389-8.974,20.367c-6.514,5.712-16.129,7.343-24.29,4.61
	c-3.677-1.479-7.207-3.504-9.95-6.415c-3.1-3.121-5.14-7.118-6.467-11.272c-0.934-4.117-0.976-8.497,0.042-12.599
	c2.019-7.249,7.233-13.354,13.936-16.706C-176.798,523.009-168.605,522.946-161.923,526.381 M-183.89,546.072
	c-0.441,2.974-0.462,6.257,1.175,8.906c2.114,3.703,6.373,6.09,10.648,5.854c3.598-0.052,7.034-1.962,9.132-4.846
	c2.14-2.848,2.686-6.688,1.815-10.097c-1.075-4.002-4.464-7.223-8.455-8.251C-175.623,535.891-182.484,539.951-183.89,546.072z"/>
<path fill="#858585" stroke="url(#Unnamed_Pattern)" stroke-miterlimit="10" d="M-183.648,525.967
	c-6.703,3.352-11.917,9.457-13.936,16.706c-9.158-6.216-18.106-12.735-26.986-19.344c-6.871,1.285-13.611,3.184-20.404,4.847
	c-6.048,1.689-12.216,2.963-18.201,4.873c-1.018-8.156-1.369-16.386-1.558-24.6c15.499-2.539,30.123-9.588,45.979-10.008
	c12.515,7.784,23.991,17.052,35.893,25.717C-182.001,524.813-182.888,525.72-183.648,525.967z"/>
<path fill="#858585" stroke="url(#Unnamed_Pattern)" stroke-miterlimit="10" d="M-161.12,545.888
	c0.871,3.409,0.325,7.249-1.815,10.097c-2.098,2.885-5.534,4.794-9.132,4.846c-4.275,0.236-8.534-2.151-10.648-5.854
	c-1.636-2.649-1.616-5.932-1.175-8.906c1.406-6.121,8.266-10.181,14.314-8.434C-165.584,538.665-162.196,541.886-161.12,545.888z"/>
<path fill="#858585" stroke="url(#Unnamed_Pattern)" stroke-miterlimit="10" d="M-181.209,572.958
	c-10.48,9.221-19.795,19.627-29.651,29.483c-6.163-0.341-12.268-1.453-18.431-1.705c-2.68-0.934-5.544-0.54-8.329-0.745
	c-6.866-0.336-13.732-0.818-20.577-1.5c-0.551-8.072-1.448-16.118-1.883-24.196c12.793,0.357,25.413,3.105,38.221,3.1
	c1.736,0.11,2.769-1.453,3.95-2.428c7.233-6.074,13.013-13.658,20.283-19.696c1.327,4.154,3.367,8.151,6.467,11.272
	C-188.416,569.454-184.886,571.479-181.209,572.958z"/>
<path fill="#829D94" stroke="url(#Unnamed_Pattern)" stroke-miterlimit="10" d="M18.788,467.83
	c0.163,9.079,0.058,18.164,0.063,27.249c-4.616-2.874-9.21-5.796-13.842-8.649c1.164-3.31,3.404-6.053,5.235-9.001
	c2.35-3.488,4.495-7.112,6.992-10.496l0.54,0.315C18.028,467.394,18.536,467.683,18.788,467.83z"/>
<path fill="#829D94" stroke="url(#Unnamed_Pattern)" stroke-miterlimit="10" d="M18.835,514.711c-2.481,3.163-4.59,6.64-7.459,9.489
	c-3.719,3.797-8.56,6.352-13.748,7.464c-1.731-4.112-3.362-8.266-5.198-12.337c-1.684-3.787-3.493-7.6-6.331-10.679
	c3.231-1.542,6.472-3.357,8.801-6.137c1.411-1.574,1.684-3.761,2.78-5.518c1.154-1.831,2.654-3.462,3.467-5.492
	c5.885,3.478,11.686,7.107,17.592,10.569C18.998,506.277,18.83,510.499,18.835,514.711z"/>
<path fill="#829D94" stroke="url(#Unnamed_Pattern)" stroke-miterlimit="10" d="M-7.285,534.49
	c-8.036,2.916-16.124,5.77-24.547,7.359c-3.955,0.687-7.91,1.81-11.959,1.584c-1.185-8.56-2.539-17.099-4.06-25.607
	c10.212-1.862,20.451-3.944,30.207-7.569C-16.779,519.258-10.763,526.439-7.285,534.49z"/>
<path fill="#829D94" stroke="url(#Unnamed_Pattern)" stroke-miterlimit="10" d="M-48.177,546.454c-0.462-0.624-0.86-1.668-1.82-1.28
	c-6.394,1.29-12.819,2.439-19.265,3.43c-5.45,1.018-10.989,1.395-16.444,2.366c-0.184-9.352-1.054-18.678-1.547-28.014
	c2.329-0.488,4.768-0.131,7.034-0.876c2.539-0.677,5.193-0.483,7.768-0.834c6.263-0.834,12.546-1.495,18.778-2.512
	C-52.52,528.086-50.679,537.365-48.177,546.454z"/>
<path fill="#829D94" stroke="url(#Unnamed_Pattern)" stroke-miterlimit="10" d="M-90.904,551.427
	c-9.032,0.629-18.091,0.608-27.138,0.713c-3.268-0.084-6.588,0.325-9.803-0.441c0.168-8.675,0.268-17.367,0.079-26.047
	c-2.035,0.147-4.075,0.288-6.121,0.404c-0.315,8.392,0.278,16.79,0.32,25.187c-4.013,2.224-7.868,4.81-11.45,7.679
	c2.979,2.565,6.105,4.946,9.189,7.38c0.965,0.724,1.563,1.783,2.234,2.759c-2.004,0-4.007,0.115-6.016,0.121
	c-5.775-0.178-11.555-0.262-17.309-0.834c5.875-4.978,9.363-12.651,8.974-20.367c-0.226-9.079-5.948-17.513-13.978-21.599
	c4.123-0.362,8.272-0.21,12.4-0.404c12.788-0.247,25.565-0.907,38.332-1.621c1.93-0.199,3.86,0.278,5.78-0.068
	c3.881-0.614,7.773,0.189,11.655-0.372C-92.939,533.1-91.879,542.258-90.904,551.427z"/>
<path fill="#829D94" stroke="url(#Unnamed_Pattern)" stroke-miterlimit="10" d="M-90.054,564.734
	c-0.011,0.902-0.047,1.81-0.089,2.727c-12.525,0.829-25.061,1.416-37.613,1.615c-0.11-2.397-0.089-4.799-0.037-7.196
	c1.033,1.191,1.537,3.462,3.472,3.299C-112.897,565.468-101.478,564.493-90.054,564.734z"/>
<path fill="#98B2A7" stroke="url(#Unnamed_Pattern)" stroke-miterlimit="10" d="M-30.364,555.403
	c-3.546,0.96-6.871,2.638-10.485,3.352c-1.39-5.014-2.402-10.149-2.943-15.321c4.049,0.226,8.004-0.897,11.959-1.584
	c8.424-1.589,16.512-4.443,24.547-7.359c2.103,4.374,4.212,8.754,5.958,13.286C-11.172,549.596-20.781,552.528-30.364,555.403z"/>
<path fill="#436151" stroke="url(#Unnamed_Pattern)" stroke-miterlimit="10" d="M18.851,495.078c0.068,2.329,0.005,4.658-0.11,6.992
	c-5.906-3.462-11.707-7.091-17.592-10.569c1.039-1.846,2.287-3.556,3.373-5.366c0.121,0.073,0.367,0.22,0.488,0.294
	C9.641,489.282,14.235,492.204,18.851,495.078z"/>
<path fill="#436151" stroke="url(#Unnamed_Pattern)" stroke-miterlimit="10" d="M-7.569,519.327
	c1.836,4.07,3.467,8.224,5.198,12.337c2.219,5.444,5.172,10.558,7.39,15.998c-1.642,1.033-3.294,2.056-4.983,3.026
	c-0.467-0.965-0.939-1.93-1.364-2.911c-1.747-4.532-3.855-8.911-5.958-13.286c-3.478-8.051-9.494-15.232-10.359-24.233
	c1.259-0.53,2.502-1.07,3.745-1.61C-11.062,511.726-9.252,515.54-7.569,519.327z"/>
<path fill="#9AB2A8" stroke="url(#Unnamed_Pattern)" stroke-miterlimit="10" d="M18.814,537.249
	c-4.395,3.729-8.964,7.259-13.795,10.412c-2.219-5.439-5.172-10.553-7.39-15.998c5.187-1.112,10.029-3.666,13.748-7.464
	c2.869-2.848,4.978-6.326,7.459-9.489C18.909,522.227,18.888,529.738,18.814,537.249z"/>
<path fill="#3A584E" stroke="url(#Unnamed_Pattern)" stroke-miterlimit="10" d="M-43.792,543.433
	c0.54,5.172,1.553,10.307,2.943,15.321c0.624,1.38,1.374,2.701,2.072,4.055c-2.418,0.577-4.925,0.519-7.375,0.923
	c0.131-1.427,0.278-2.848,0.346-4.27c-0.32-4.401-1.4-8.717-2.371-13.008c-2.502-9.09-4.343-18.369-5.497-27.721
	c1.946-0.283,3.881-0.635,5.822-0.907C-46.33,526.334-44.977,534.873-43.792,543.433z"/>
<path fill="#385A4C" stroke="url(#Unnamed_Pattern)" stroke-miterlimit="10" d="M-87.253,522.956
	c0.493,9.336,1.364,18.662,1.547,28.014c0.247,4.044,0.629,8.083,1.164,12.101c0.184,1.254,0.378,2.507,0.556,3.771
	c0.682,0.037,1.359,0.079,2.03,0.131c-2.103,0.593-4.437,0.089-6.63,0.414c-0.388,0.021-1.17,0.052-1.558,0.073
	c0.042-0.918,0.079-1.825,0.089-2.727c-0.157-4.437-0.289-8.896-0.85-13.307c-0.976-9.169-2.035-18.327-2.853-27.511l-0.037-0.372
	c2.15-0.462,4.332-0.703,6.509-0.976L-87.253,522.956z"/>
<path fill="#3A5C4E" stroke="url(#Unnamed_Pattern)" stroke-miterlimit="10" d="M-127.793,561.88
	c-0.052,2.397-0.073,4.799,0.037,7.196c-1.899,0.079-3.803,0.079-5.707-0.01c0.047-5.943,0.058-11.885-0.105-17.823
	c-0.042-8.397-0.635-16.795-0.32-25.187c2.046-0.115,4.086-0.257,6.121-0.404c0.189,8.681,0.089,17.372-0.079,26.047
	C-128.244,555.088-127.798,558.487-127.793,561.88z"/>
<path fill="#84A094" stroke="url(#Unnamed_Pattern)" stroke-miterlimit="10" d="M0.037,550.687
	c-7.343,4.28-15.284,7.563-23.582,9.436c-2.47,0.614-4.915,1.511-7.506,1.379c-0.446,0.247-0.897,0.504-1.353,0.766
	c-2.124,0.089-4.285,0.058-6.373,0.54c-0.698-1.353-1.448-2.675-2.072-4.055c3.614-0.713,6.939-2.392,10.485-3.352
	c9.583-2.874,19.192-5.806,29.037-7.626C-0.902,548.757-0.43,549.722,0.037,550.687z"/>
<path fill="#97B2A7" stroke="url(#Unnamed_Pattern)" stroke-miterlimit="10" d="M-45.806,559.462
	c-5.869,0.247-11.649,1.327-17.493,1.846c-7.07,0.745-14.162,1.175-21.243,1.762c-0.535-4.018-0.918-8.057-1.164-12.101
	c5.455-0.97,10.994-1.348,16.444-2.366c6.446-0.991,12.872-2.14,19.265-3.43c0.96-0.388,1.358,0.656,1.82,1.28
	C-47.206,550.745-46.126,555.062-45.806,559.462z"/>
<path fill="#97B2A6" stroke="url(#Unnamed_Pattern)" stroke-miterlimit="10" d="M-124.32,565.18
	c-1.935,0.163-2.439-2.109-3.472-3.299c-0.005-3.394-0.451-6.792-0.052-10.181c3.215,0.766,6.535,0.357,9.803,0.441
	c9.048-0.105,18.106-0.084,27.138-0.713c0.561,4.411,0.692,8.87,0.85,13.307C-101.478,564.493-112.897,565.468-124.32,565.18z"/>
<path fill="#97B4A7" stroke="url(#Unnamed_Pattern)" stroke-miterlimit="10" d="M-133.594,569.061
	c-0.671-0.976-1.269-2.035-2.234-2.759c-3.084-2.434-6.21-4.815-9.189-7.38c3.582-2.869,7.438-5.455,11.45-7.679
	c0.163,5.938,0.152,11.88,0.105,17.823L-133.594,569.061z"/>
<path fill="#819C91" stroke="url(#Unnamed_Pattern)" stroke-miterlimit="10" d="M-46.152,563.732
	c-11.927,1.143-23.855,2.324-35.803,3.242c-0.671-0.052-1.348-0.094-2.03-0.131c-0.178-1.264-0.372-2.518-0.556-3.771
	c7.081-0.587,14.172-1.018,21.243-1.762c5.843-0.519,11.623-1.6,17.493-1.846C-45.874,560.884-46.021,562.305-46.152,563.732z"/>
<g id="_x23_404f4a87_1_">
	<path opacity="0.53" fill="#404F4A" stroke="url(#Unnamed_Pattern)" stroke-miterlimit="10" enable-background="new    " d="
		M-119.075,569.203c-6.845-0.121-13.695,0.383-20.535-0.021c2.009-0.005,4.013-0.121,6.016-0.121l0.131,0.005
		c1.904,0.089,3.808,0.089,5.707,0.01c12.552-0.199,25.088-0.787,37.613-1.615c0.388-0.021,1.17-0.052,1.558-0.073
		C-98.682,568.558-108.91,568.673-119.075,569.203z"/>
</g>
<text transform="matrix(1 0 0 1 372.8253 130.6573)" font-family="'Raleway-Regular'" font-size="53.3253">?</text>
<text transform="matrix(1 0 0 1 -248.372 277.0059)" font-family="'Raleway-Regular'" font-size="45.6272">?</text>
<text transform="matrix(1 0 0 1 -139.2245 149.0069)" font-family="'Raleway-Regular'" font-size="37.7651">?</text>
<text transform="matrix(1 0 0 1 445.3067 434.4483)" font-family="'Raleway-Regular'" font-size="63.1157">?</text>
<text transform="matrix(1 0 0 1 -173.748 419.168)" font-family="'Raleway-Regular'" font-size="62.6089">?</text>
</svg>
